<?xml version="1.0" encoding="UTF-8" standalone="no"?>
<!DOCTYPE svg PUBLIC "-//W3C//DTD SVG 1.1//EN" "http://www.w3.org/Graphics/SVG/1.1/DTD/svg11.dtd">
<svg version="1.1" xmlns="http://www.w3.org/2000/svg" xmlns:xlink="http://www.w3.org/1999/xlink" xml:space="preserve" xmlns:serif="http://www.serif.com/" style="fill-rule:evenodd;clip-rule:evenodd;stroke-linecap:round;stroke-linejoin:round;stroke-miterlimit:1.5;">
    <g transform="matrix(1,0,0,1,-4848.38,-12475.6)">
        <g transform="matrix(0.452468,-0.158175,0.239307,0.684551,2868.91,11374.1)">
            <path d="M3575.78,3138.93C3575.78,3138.93 3599.88,3085.04 3674.5,3128.61C3785.21,3193.24 3575.78,3138.93 3575.78,3138.93Z" style="fill:rgb(2,164,126);stroke:white;stroke-width:9.07px;"/>
        </g>
        <g transform="matrix(0.0701606,-0.62791,0.714017,0.0797819,2716.27,15033.6)">
            <path d="M3582.07,3151.06C3582.07,3151.06 3598.37,3081.35 3669.93,3113.26C3788.45,3166.1 3582.07,3151.06 3582.07,3151.06Z" style="fill:rgb(2,164,126);stroke:white;stroke-width:6.4px;"/>
        </g>
        <g transform="matrix(-0.290449,-0.5611,0.638045,-0.330278,4300.78,16065.6)">
            <path d="M3556.71,3161.28C3556.71,3161.28 3568.21,3092.46 3639.78,3124.37C3758.29,3177.21 3556.71,3161.28 3556.71,3161.28Z" style="fill:rgb(2,164,126);stroke:white;stroke-width:6.4px;"/>
        </g>
        <g transform="matrix(-0.456065,-0.0273706,-0.03921,0.422664,6982.3,11652.1)">
            <path d="M3399.08,3595.24C3287.74,3236.84 2729.39,3159.4 2850.5,2672.55C2889.75,2514.76 3015.89,2409.39 3009.74,2424.12C2820.07,2878.31 3083.12,3095.52 3155.11,3183.99C3231.95,3278.41 3365.58,3405.1 3392.21,3515.17C3400.17,3548.07 3411.15,3634.09 3399.08,3595.24Z" style="fill:rgb(134,186,66);"/>
        </g>
        <g transform="matrix(-0.595647,0.0375636,0.00685367,0.497725,7291.1,11276.8)">
            <path d="M3399.08,3595.24C3287.74,3236.84 2729.39,3159.4 2850.5,2672.55C2889.75,2514.76 3015.89,2409.39 3009.74,2424.12C2820.07,2878.31 3083.12,3095.52 3155.11,3183.99C3231.95,3278.41 3365.58,3405.1 3392.21,3515.17C3400.17,3548.07 3411.15,3634.09 3399.08,3595.24Z" style="fill:rgb(2,164,126);"/>
        </g>
        <g transform="matrix(0.456065,-0.0273706,0.03921,0.422664,3488.7,11652.1)">
            <path d="M3399.08,3595.24C3287.74,3236.84 2729.39,3159.4 2850.5,2672.55C2889.75,2514.76 3015.89,2409.39 3009.74,2424.12C2820.07,2878.31 3083.12,3095.52 3155.11,3183.99C3231.95,3278.41 3365.58,3405.1 3392.21,3515.17C3400.17,3548.07 3411.15,3634.09 3399.08,3595.24Z" style="fill:rgb(134,186,66);"/>
        </g>
        <g transform="matrix(0.595647,0.0375636,-0.00685367,0.497725,3179.9,11276.8)">
            <path d="M3399.08,3595.24C3287.74,3236.84 2729.39,3159.4 2850.5,2672.55C2889.75,2514.76 3015.89,2409.39 3009.74,2424.12C2820.07,2878.31 3083.12,3095.52 3155.11,3183.99C3231.95,3278.41 3365.58,3405.1 3392.21,3515.17C3400.17,3548.07 3411.15,3634.09 3399.08,3595.24Z" style="fill:rgb(2,164,126);"/>
        </g>
        <g transform="matrix(0.202911,0.449469,-0.449469,0.202911,5949.5,10721.2)">
            <path d="M3336.78,2530.89C3344.65,2518.43 3352.09,2547.23 3349.29,2554.02C3148.02,3042.66 3517.31,3140.07 3453.54,3128.83C3163.3,3077.7 3024.7,2752.18 3020.66,2683.76C3017.61,2631.88 3105.68,2804.77 3155.51,2780.67C3208.2,2755.2 3300.15,2588.82 3336.78,2530.89Z" style="fill:rgb(2,164,126);"/>
        </g>
        <g transform="matrix(0.565208,0.327027,-0.341255,0.589799,4347.31,9960.63)">
            <path d="M3307.43,2553.69C3309.51,2539.26 3355.13,2577.74 3343.41,2609.27C3199.7,2995.89 3508.7,3172.86 3448.35,3150.16C3170.49,3045.61 3021.47,2742.1 3017.44,2673.69C3014.39,2621.81 3238.7,3030.47 3307.43,2553.69Z" style="fill:rgb(134,186,66);"/>
        </g>
        <g transform="matrix(0.483626,0.0964468,-0.0964468,0.483626,3811.34,11096.9)">
            <ellipse cx="3109.64" cy="2592.78" rx="62.201" ry="73.452" style="fill:rgb(2,164,126);"/>
        </g>
        <g transform="matrix(0.758813,0.151326,-0.148651,0.745401,3268.34,10127.9)">
            <ellipse cx="3109.64" cy="2592.78" rx="62.201" ry="73.452" style="fill:rgb(134,186,66);"/>
        </g>
        <g transform="matrix(0.590854,0.117831,-0.114862,0.575969,3867.26,10793.3)">
            <ellipse cx="3109.64" cy="2592.78" rx="62.201" ry="73.452" style="fill:rgb(2,164,126);"/>
        </g>
        <g transform="matrix(0.483626,0.0964468,-0.0964468,0.483626,3811.34,11096.9)">
            <path d="M3259.49,2475.46C3267.36,2463.01 3273.54,2491.41 3272,2498.6C3152.6,3053.82 3579.21,3125.51 3416.81,3098.17C3126.2,3049.25 3024.7,2752.18 3020.66,2683.76C3017.61,2631.88 3115.71,2815.39 3155.51,2780.67C3195.32,2745.96 3222.86,2533.39 3259.49,2475.46Z" style="fill:rgb(2,164,126);"/>
        </g>
        <g transform="matrix(0.635822,0,0,0.521748,1530.27,13073.2)">
            <g transform="matrix(342.331,0,0,417.177,5248.07,635.116)">
                <path d="M0.441,-0.652C0.392,-0.673 0.344,-0.683 0.296,-0.683C0.199,-0.683 0.15,-0.647 0.15,-0.575C0.15,-0.544 0.161,-0.515 0.183,-0.488C0.205,-0.46 0.232,-0.437 0.263,-0.416C0.294,-0.395 0.326,-0.373 0.357,-0.351C0.388,-0.329 0.415,-0.303 0.437,-0.272C0.459,-0.241 0.47,-0.208 0.47,-0.172C0.47,-0.111 0.45,-0.066 0.409,-0.035C0.368,-0.004 0.312,0.012 0.241,0.012C0.169,0.012 0.108,-0.006 0.057,-0.043L0.081,-0.079C0.129,-0.048 0.182,-0.032 0.239,-0.032C0.296,-0.032 0.34,-0.044 0.371,-0.067C0.402,-0.09 0.417,-0.123 0.417,-0.166C0.417,-0.196 0.406,-0.225 0.384,-0.252C0.362,-0.278 0.335,-0.303 0.304,-0.325C0.273,-0.346 0.241,-0.368 0.21,-0.391C0.179,-0.414 0.152,-0.441 0.13,-0.472C0.108,-0.503 0.097,-0.537 0.097,-0.573C0.097,-0.62 0.115,-0.658 0.15,-0.686C0.185,-0.713 0.232,-0.727 0.292,-0.727C0.351,-0.727 0.407,-0.715 0.458,-0.691L0.441,-0.652Z" style="fill:rgb(2,164,126);fill-rule:nonzero;"/>
            </g>
            <g transform="matrix(342.331,0,0,417.177,5435.33,635.116)">
                <path d="M0.17,-0.248L0.067,-0L0.016,-0L0.317,-0.72L0.345,-0.72L0.647,-0L0.593,-0L0.49,-0.248L0.17,-0.248ZM0.328,-0.64C0.327,-0.639 0.326,-0.635 0.324,-0.628C0.315,-0.599 0.306,-0.575 0.297,-0.555L0.187,-0.289L0.473,-0.289L0.363,-0.554C0.34,-0.605 0.328,-0.633 0.328,-0.64Z" style="fill:rgb(2,164,126);fill-rule:nonzero;"/>
            </g>
            <g transform="matrix(342.331,0,0,417.177,5662.29,635.116)">
                <path d="M0.132,-0L0.132,-0.715L0.18,-0.715L0.18,-0.044L0.509,-0.044L0.509,-0L0.132,-0Z" style="fill:rgb(2,164,126);fill-rule:nonzero;"/>
            </g>
            <g transform="matrix(342.331,0,0,417.177,5844.07,635.116)">
                <path d="M0.47,-0.037L0.443,-0.037L0.234,-0.543C0.222,-0.571 0.212,-0.596 0.205,-0.617L0.195,-0.541L0.113,-0L0.064,-0L0.182,-0.721L0.21,-0.721L0.433,-0.191C0.444,-0.166 0.453,-0.143 0.46,-0.121C0.462,-0.128 0.472,-0.151 0.491,-0.19L0.74,-0.721L0.767,-0.721L0.876,-0L0.826,-0L0.748,-0.543C0.743,-0.577 0.74,-0.603 0.74,-0.62C0.739,-0.619 0.738,-0.616 0.736,-0.611C0.733,-0.605 0.729,-0.596 0.724,-0.583C0.718,-0.57 0.712,-0.556 0.706,-0.542L0.47,-0.037Z" style="fill:rgb(2,164,126);fill-rule:nonzero;"/>
            </g>
            <g transform="matrix(342.331,0,0,417.177,6165.86,635.116)">
                <path d="M0.17,-0.248L0.067,-0L0.016,-0L0.317,-0.72L0.345,-0.72L0.647,-0L0.593,-0L0.49,-0.248L0.17,-0.248ZM0.328,-0.64C0.327,-0.639 0.326,-0.635 0.324,-0.628C0.315,-0.599 0.306,-0.575 0.297,-0.555L0.187,-0.289L0.473,-0.289L0.363,-0.554C0.34,-0.605 0.328,-0.633 0.328,-0.64Z" style="fill:rgb(2,164,126);fill-rule:nonzero;"/>
            </g>
        </g>
        <g transform="matrix(0.597811,0,0,0.232055,1756.76,13353.6)">
            <g transform="matrix(91.3889,0,0,235.433,5251.28,513.408)">
                <path d="M0.38,-0.711L0.475,-0.711L0.475,-0.208C0.475,-0.139 0.454,-0.086 0.413,-0.048C0.372,-0.009 0.318,0.01 0.25,0.01C0.179,0.01 0.124,-0.008 0.085,-0.044C0.046,-0.081 0.026,-0.131 0.026,-0.196L0.12,-0.196C0.12,-0.156 0.131,-0.124 0.153,-0.101C0.175,-0.078 0.208,-0.067 0.25,-0.067C0.289,-0.067 0.32,-0.079 0.344,-0.104C0.368,-0.128 0.38,-0.162 0.38,-0.206L0.38,-0.711Z" style="fill:rgb(102,168,152);fill-rule:nonzero;"/>
            </g>
            <g transform="matrix(91.3889,0,0,235.433,5301.7,513.408)">
                <path d="M0.395,-0.052C0.359,-0.011 0.308,0.01 0.24,0.01C0.183,0.01 0.141,-0.007 0.111,-0.039C0.082,-0.072 0.067,-0.12 0.066,-0.185L0.066,-0.528L0.157,-0.528L0.157,-0.187C0.157,-0.107 0.189,-0.067 0.254,-0.067C0.323,-0.067 0.369,-0.093 0.392,-0.144L0.392,-0.528L0.482,-0.528L0.482,-0L0.396,-0L0.395,-0.052Z" style="fill:rgb(102,168,152);fill-rule:nonzero;"/>
            </g>
            <g transform="matrix(91.3889,0,0,235.433,5352.08,513.408)">
                <path d="M0.154,-0.528L0.157,-0.462C0.197,-0.513 0.25,-0.538 0.315,-0.538C0.427,-0.538 0.483,-0.475 0.484,-0.349L0.484,-0L0.394,-0L0.394,-0.35C0.393,-0.388 0.385,-0.416 0.367,-0.434C0.35,-0.452 0.324,-0.461 0.288,-0.461C0.258,-0.461 0.233,-0.454 0.21,-0.438C0.188,-0.422 0.171,-0.402 0.159,-0.376L0.159,-0L0.068,-0L0.068,-0.528L0.154,-0.528Z" style="fill:rgb(102,168,152);fill-rule:nonzero;"/>
            </g>
            <g transform="matrix(91.3889,0,0,235.433,5402.51,513.408)">
                <path d="M0.191,-0.656L0.191,-0.528L0.29,-0.528L0.29,-0.458L0.191,-0.458L0.191,-0.131C0.191,-0.11 0.195,-0.094 0.204,-0.083C0.213,-0.073 0.228,-0.067 0.249,-0.067C0.259,-0.067 0.274,-0.069 0.292,-0.073L0.292,-0C0.268,0.007 0.245,0.01 0.223,0.01C0.182,0.01 0.152,-0.002 0.131,-0.027C0.111,-0.051 0.101,-0.086 0.101,-0.131L0.101,-0.458L0.004,-0.458L0.004,-0.528L0.101,-0.528L0.101,-0.656L0.191,-0.656Z" style="fill:rgb(102,168,152);fill-rule:nonzero;"/>
            </g>
            <g transform="matrix(91.3889,0,0,235.433,5431.47,513.408)">
                <path d="M0.044,-0.269C0.044,-0.321 0.055,-0.367 0.075,-0.409C0.095,-0.45 0.124,-0.482 0.16,-0.504C0.196,-0.527 0.238,-0.538 0.284,-0.538C0.356,-0.538 0.414,-0.513 0.459,-0.463C0.503,-0.414 0.525,-0.347 0.525,-0.265L0.525,-0.258C0.525,-0.207 0.516,-0.161 0.496,-0.12C0.476,-0.079 0.448,-0.047 0.411,-0.024C0.375,-0.002 0.333,0.01 0.285,0.01C0.214,0.01 0.156,-0.015 0.111,-0.065C0.067,-0.115 0.044,-0.181 0.044,-0.263L0.044,-0.269ZM0.135,-0.258C0.135,-0.2 0.149,-0.153 0.176,-0.117C0.203,-0.082 0.24,-0.064 0.285,-0.064C0.331,-0.064 0.368,-0.082 0.395,-0.118C0.422,-0.154 0.435,-0.204 0.435,-0.269C0.435,-0.327 0.421,-0.374 0.394,-0.41C0.366,-0.446 0.33,-0.464 0.284,-0.464C0.24,-0.464 0.204,-0.446 0.176,-0.411C0.149,-0.375 0.135,-0.324 0.135,-0.258Z" style="fill:rgb(102,168,152);fill-rule:nonzero;"/>
            </g>
            <g transform="matrix(91.3889,0,0,235.433,5483.59,513.408)">
                <path d="M0.376,-0.14C0.376,-0.165 0.367,-0.184 0.348,-0.197C0.33,-0.211 0.298,-0.222 0.252,-0.232C0.206,-0.242 0.17,-0.253 0.143,-0.267C0.116,-0.281 0.097,-0.297 0.084,-0.316C0.071,-0.335 0.064,-0.357 0.064,-0.383C0.064,-0.427 0.083,-0.463 0.119,-0.493C0.156,-0.523 0.203,-0.538 0.26,-0.538C0.32,-0.538 0.368,-0.523 0.406,-0.492C0.443,-0.461 0.461,-0.421 0.461,-0.373L0.371,-0.373C0.371,-0.398 0.36,-0.419 0.339,-0.437C0.318,-0.455 0.292,-0.464 0.26,-0.464C0.227,-0.464 0.201,-0.457 0.183,-0.442C0.164,-0.428 0.155,-0.409 0.155,-0.386C0.155,-0.364 0.163,-0.348 0.181,-0.337C0.198,-0.326 0.229,-0.315 0.274,-0.305C0.319,-0.295 0.356,-0.283 0.384,-0.269C0.412,-0.255 0.433,-0.238 0.446,-0.219C0.46,-0.199 0.466,-0.175 0.466,-0.146C0.466,-0.099 0.447,-0.061 0.41,-0.033C0.372,-0.004 0.323,0.01 0.263,0.01C0.22,0.01 0.183,0.002 0.15,-0.013C0.118,-0.028 0.092,-0.049 0.074,-0.075C0.056,-0.102 0.046,-0.131 0.046,-0.163L0.137,-0.163C0.138,-0.132 0.15,-0.108 0.173,-0.091C0.196,-0.073 0.226,-0.064 0.263,-0.064C0.297,-0.064 0.324,-0.071 0.345,-0.085C0.366,-0.099 0.376,-0.117 0.376,-0.14Z" style="fill:rgb(102,168,152);fill-rule:nonzero;"/>
            </g>
            <g transform="matrix(91.3889,0,0,235.433,5553.33,513.408)">
                <path d="M0.177,-0.077L0.514,-0.077L0.514,-0L0.083,-0L0.083,-0.711L0.177,-0.711L0.177,-0.077Z" style="fill:rgb(102,168,152);fill-rule:nonzero;"/>
            </g>
            <g transform="matrix(91.3889,0,0,235.433,5602.51,513.408)">
                <rect x="0.076" y="-0.75" width="0.09" height="0.75" style="fill:rgb(102,168,152);fill-rule:nonzero;"/>
            </g>
            <g transform="matrix(91.3889,0,0,235.433,5624.69,513.408)">
                <path d="M0.288,0.01C0.216,0.01 0.158,-0.014 0.113,-0.061C0.068,-0.108 0.045,-0.171 0.045,-0.25L0.045,-0.266C0.045,-0.319 0.055,-0.365 0.075,-0.406C0.095,-0.448 0.123,-0.48 0.159,-0.503C0.195,-0.526 0.234,-0.538 0.276,-0.538C0.345,-0.538 0.398,-0.515 0.437,-0.47C0.475,-0.425 0.494,-0.36 0.494,-0.276L0.494,-0.238L0.136,-0.238C0.137,-0.186 0.152,-0.144 0.181,-0.112C0.211,-0.08 0.248,-0.064 0.292,-0.064C0.324,-0.064 0.351,-0.07 0.374,-0.083C0.396,-0.097 0.415,-0.114 0.432,-0.135L0.487,-0.092C0.443,-0.024 0.376,0.01 0.288,0.01ZM0.276,-0.464C0.24,-0.464 0.209,-0.451 0.185,-0.424C0.16,-0.398 0.145,-0.36 0.139,-0.313L0.403,-0.313L0.403,-0.319C0.401,-0.365 0.388,-0.401 0.366,-0.426C0.344,-0.451 0.314,-0.464 0.276,-0.464Z" style="fill:rgb(102,168,152);fill-rule:nonzero;"/>
            </g>
            <g transform="matrix(91.3889,0,0,235.433,5672.52,513.408)">
                <path d="M0.243,-0.123L0.374,-0.528L0.466,-0.528L0.276,-0L0.208,-0L0.016,-0.528L0.108,-0.528L0.243,-0.123Z" style="fill:rgb(102,168,152);fill-rule:nonzero;"/>
            </g>
            <g transform="matrix(91.3889,0,0,235.433,5716.21,513.408)">
                <path d="M0.288,0.01C0.216,0.01 0.158,-0.014 0.113,-0.061C0.068,-0.108 0.045,-0.171 0.045,-0.25L0.045,-0.266C0.045,-0.319 0.055,-0.365 0.075,-0.406C0.095,-0.448 0.123,-0.48 0.159,-0.503C0.195,-0.526 0.234,-0.538 0.276,-0.538C0.345,-0.538 0.398,-0.515 0.437,-0.47C0.475,-0.425 0.494,-0.36 0.494,-0.276L0.494,-0.238L0.136,-0.238C0.137,-0.186 0.152,-0.144 0.181,-0.112C0.211,-0.08 0.248,-0.064 0.292,-0.064C0.324,-0.064 0.351,-0.07 0.374,-0.083C0.396,-0.097 0.415,-0.114 0.432,-0.135L0.487,-0.092C0.443,-0.024 0.376,0.01 0.288,0.01ZM0.276,-0.464C0.24,-0.464 0.209,-0.451 0.185,-0.424C0.16,-0.398 0.145,-0.36 0.139,-0.313L0.403,-0.313L0.403,-0.319C0.401,-0.365 0.388,-0.401 0.366,-0.426C0.344,-0.451 0.314,-0.464 0.276,-0.464Z" style="fill:rgb(102,168,152);fill-rule:nonzero;"/>
            </g>
            <g transform="matrix(91.3889,0,0,235.433,5764.63,513.408)">
                <path d="M0.153,-0.528L0.156,-0.47C0.194,-0.515 0.247,-0.538 0.313,-0.538C0.386,-0.538 0.437,-0.51 0.463,-0.453C0.481,-0.479 0.504,-0.499 0.532,-0.515C0.56,-0.53 0.593,-0.538 0.632,-0.538C0.748,-0.538 0.807,-0.477 0.809,-0.354L0.809,-0L0.718,-0L0.718,-0.349C0.718,-0.386 0.71,-0.415 0.692,-0.433C0.675,-0.452 0.646,-0.461 0.605,-0.461C0.572,-0.461 0.544,-0.451 0.522,-0.431C0.5,-0.411 0.487,-0.384 0.483,-0.351L0.483,-0L0.393,-0L0.393,-0.346C0.393,-0.423 0.355,-0.461 0.28,-0.461C0.221,-0.461 0.18,-0.436 0.158,-0.386L0.158,-0L0.068,-0L0.068,-0.528L0.153,-0.528Z" style="fill:rgb(102,168,152);fill-rule:nonzero;"/>
            </g>
            <g transform="matrix(91.3889,0,0,235.433,5844.72,513.408)">
                <path d="M0.044,-0.269C0.044,-0.321 0.055,-0.367 0.075,-0.409C0.095,-0.45 0.124,-0.482 0.16,-0.504C0.196,-0.527 0.238,-0.538 0.284,-0.538C0.356,-0.538 0.414,-0.513 0.459,-0.463C0.503,-0.414 0.525,-0.347 0.525,-0.265L0.525,-0.258C0.525,-0.207 0.516,-0.161 0.496,-0.12C0.476,-0.079 0.448,-0.047 0.411,-0.024C0.375,-0.002 0.333,0.01 0.285,0.01C0.214,0.01 0.156,-0.015 0.111,-0.065C0.067,-0.115 0.044,-0.181 0.044,-0.263L0.044,-0.269ZM0.135,-0.258C0.135,-0.2 0.149,-0.153 0.176,-0.117C0.203,-0.082 0.24,-0.064 0.285,-0.064C0.331,-0.064 0.368,-0.082 0.395,-0.118C0.422,-0.154 0.435,-0.204 0.435,-0.269C0.435,-0.327 0.421,-0.374 0.394,-0.41C0.366,-0.446 0.33,-0.464 0.284,-0.464C0.24,-0.464 0.204,-0.446 0.176,-0.411C0.149,-0.375 0.135,-0.324 0.135,-0.258Z" style="fill:rgb(102,168,152);fill-rule:nonzero;"/>
            </g>
            <g transform="matrix(91.3889,0,0,235.433,5896.84,513.408)">
                <path d="M0.376,-0.14C0.376,-0.165 0.367,-0.184 0.348,-0.197C0.33,-0.211 0.298,-0.222 0.252,-0.232C0.206,-0.242 0.17,-0.253 0.143,-0.267C0.116,-0.281 0.097,-0.297 0.084,-0.316C0.071,-0.335 0.064,-0.357 0.064,-0.383C0.064,-0.427 0.083,-0.463 0.119,-0.493C0.156,-0.523 0.203,-0.538 0.26,-0.538C0.32,-0.538 0.368,-0.523 0.406,-0.492C0.443,-0.461 0.461,-0.421 0.461,-0.373L0.371,-0.373C0.371,-0.398 0.36,-0.419 0.339,-0.437C0.318,-0.455 0.292,-0.464 0.26,-0.464C0.227,-0.464 0.201,-0.457 0.183,-0.442C0.164,-0.428 0.155,-0.409 0.155,-0.386C0.155,-0.364 0.163,-0.348 0.181,-0.337C0.198,-0.326 0.229,-0.315 0.274,-0.305C0.319,-0.295 0.356,-0.283 0.384,-0.269C0.412,-0.255 0.433,-0.238 0.446,-0.219C0.46,-0.199 0.466,-0.175 0.466,-0.146C0.466,-0.099 0.447,-0.061 0.41,-0.033C0.372,-0.004 0.323,0.01 0.263,0.01C0.22,0.01 0.183,0.002 0.15,-0.013C0.118,-0.028 0.092,-0.049 0.074,-0.075C0.056,-0.102 0.046,-0.131 0.046,-0.163L0.137,-0.163C0.138,-0.132 0.15,-0.108 0.173,-0.091C0.196,-0.073 0.226,-0.064 0.263,-0.064C0.297,-0.064 0.324,-0.071 0.345,-0.085C0.366,-0.099 0.376,-0.117 0.376,-0.14Z" style="fill:rgb(102,168,152);fill-rule:nonzero;"/>
            </g>
            <g transform="matrix(91.3889,0,0,235.433,5966.59,513.408)">
                <path d="M0.484,-0.329L0.176,-0.329L0.176,-0.077L0.534,-0.077L0.534,-0L0.083,-0L0.083,-0.711L0.529,-0.711L0.529,-0.634L0.176,-0.634L0.176,-0.405L0.484,-0.405L0.484,-0.329Z" style="fill:rgb(102,168,152);fill-rule:nonzero;"/>
            </g>
            <g transform="matrix(91.3889,0,0,235.433,6018.53,513.408)">
                <path d="M0.376,-0.14C0.376,-0.165 0.367,-0.184 0.348,-0.197C0.33,-0.211 0.298,-0.222 0.252,-0.232C0.206,-0.242 0.17,-0.253 0.143,-0.267C0.116,-0.281 0.097,-0.297 0.084,-0.316C0.071,-0.335 0.064,-0.357 0.064,-0.383C0.064,-0.427 0.083,-0.463 0.119,-0.493C0.156,-0.523 0.203,-0.538 0.26,-0.538C0.32,-0.538 0.368,-0.523 0.406,-0.492C0.443,-0.461 0.461,-0.421 0.461,-0.373L0.371,-0.373C0.371,-0.398 0.36,-0.419 0.339,-0.437C0.318,-0.455 0.292,-0.464 0.26,-0.464C0.227,-0.464 0.201,-0.457 0.183,-0.442C0.164,-0.428 0.155,-0.409 0.155,-0.386C0.155,-0.364 0.163,-0.348 0.181,-0.337C0.198,-0.326 0.229,-0.315 0.274,-0.305C0.319,-0.295 0.356,-0.283 0.384,-0.269C0.412,-0.255 0.433,-0.238 0.446,-0.219C0.46,-0.199 0.466,-0.175 0.466,-0.146C0.466,-0.099 0.447,-0.061 0.41,-0.033C0.372,-0.004 0.323,0.01 0.263,0.01C0.22,0.01 0.183,0.002 0.15,-0.013C0.118,-0.028 0.092,-0.049 0.074,-0.075C0.056,-0.102 0.046,-0.131 0.046,-0.163L0.137,-0.163C0.138,-0.132 0.15,-0.108 0.173,-0.091C0.196,-0.073 0.226,-0.064 0.263,-0.064C0.297,-0.064 0.324,-0.071 0.345,-0.085C0.366,-0.099 0.376,-0.117 0.376,-0.14Z" style="fill:rgb(102,168,152);fill-rule:nonzero;"/>
            </g>
            <g transform="matrix(91.3889,0,0,235.433,6065.66,513.408)">
                <path d="M0.515,-0.258C0.515,-0.178 0.496,-0.113 0.459,-0.064C0.423,-0.015 0.373,0.01 0.31,0.01C0.246,0.01 0.195,-0.011 0.159,-0.051L0.159,0.203L0.068,0.203L0.068,-0.528L0.151,-0.528L0.155,-0.47C0.192,-0.515 0.243,-0.538 0.309,-0.538C0.372,-0.538 0.422,-0.514 0.459,-0.466C0.496,-0.418 0.515,-0.352 0.515,-0.267L0.515,-0.258ZM0.424,-0.269C0.424,-0.328 0.412,-0.375 0.386,-0.41C0.361,-0.444 0.326,-0.461 0.282,-0.461C0.227,-0.461 0.186,-0.437 0.159,-0.389L0.159,-0.136C0.186,-0.088 0.227,-0.064 0.283,-0.064C0.326,-0.064 0.36,-0.081 0.386,-0.115C0.412,-0.15 0.424,-0.201 0.424,-0.269Z" style="fill:rgb(102,168,152);fill-rule:nonzero;"/>
            </g>
            <g transform="matrix(91.3889,0,0,235.433,6116.93,513.408)">
                <path d="M0.288,0.01C0.216,0.01 0.158,-0.014 0.113,-0.061C0.068,-0.108 0.045,-0.171 0.045,-0.25L0.045,-0.266C0.045,-0.319 0.055,-0.365 0.075,-0.406C0.095,-0.448 0.123,-0.48 0.159,-0.503C0.195,-0.526 0.234,-0.538 0.276,-0.538C0.345,-0.538 0.398,-0.515 0.437,-0.47C0.475,-0.425 0.494,-0.36 0.494,-0.276L0.494,-0.238L0.136,-0.238C0.137,-0.186 0.152,-0.144 0.181,-0.112C0.211,-0.08 0.248,-0.064 0.292,-0.064C0.324,-0.064 0.351,-0.07 0.374,-0.083C0.396,-0.097 0.415,-0.114 0.432,-0.135L0.487,-0.092C0.443,-0.024 0.376,0.01 0.288,0.01ZM0.276,-0.464C0.24,-0.464 0.209,-0.451 0.185,-0.424C0.16,-0.398 0.145,-0.36 0.139,-0.313L0.403,-0.313L0.403,-0.319C0.401,-0.365 0.388,-0.401 0.366,-0.426C0.344,-0.451 0.314,-0.464 0.276,-0.464Z" style="fill:rgb(102,168,152);fill-rule:nonzero;"/>
            </g>
            <g transform="matrix(91.3889,0,0,235.433,6165.34,513.408)">
                <path d="M0.324,-0.447C0.31,-0.45 0.295,-0.451 0.279,-0.451C0.22,-0.451 0.18,-0.425 0.159,-0.375L0.159,-0L0.068,-0L0.068,-0.528L0.156,-0.528L0.158,-0.467C0.187,-0.514 0.229,-0.538 0.284,-0.538C0.301,-0.538 0.315,-0.536 0.324,-0.531L0.324,-0.447Z" style="fill:rgb(102,168,152);fill-rule:nonzero;"/>
            </g>
            <g transform="matrix(91.3889,0,0,235.433,6194.48,513.408)">
                <path d="M0.395,-0C0.389,-0.01 0.385,-0.029 0.382,-0.056C0.34,-0.012 0.29,0.01 0.231,0.01C0.179,0.01 0.137,-0.005 0.103,-0.034C0.07,-0.064 0.053,-0.101 0.053,-0.146C0.053,-0.201 0.074,-0.244 0.116,-0.275C0.158,-0.305 0.217,-0.32 0.292,-0.32L0.38,-0.32L0.38,-0.362C0.38,-0.393 0.371,-0.419 0.352,-0.437C0.333,-0.456 0.305,-0.465 0.269,-0.465C0.236,-0.465 0.209,-0.457 0.188,-0.441C0.166,-0.425 0.155,-0.405 0.155,-0.382L0.064,-0.382C0.064,-0.408 0.073,-0.434 0.092,-0.458C0.111,-0.483 0.136,-0.502 0.168,-0.517C0.2,-0.531 0.236,-0.538 0.274,-0.538C0.335,-0.538 0.382,-0.523 0.417,-0.492C0.451,-0.462 0.469,-0.42 0.471,-0.367L0.471,-0.124C0.471,-0.075 0.477,-0.036 0.489,-0.008L0.489,-0L0.395,-0ZM0.245,-0.069C0.273,-0.069 0.3,-0.076 0.325,-0.091C0.351,-0.105 0.369,-0.125 0.38,-0.148L0.38,-0.256L0.31,-0.256C0.199,-0.256 0.144,-0.224 0.144,-0.159C0.144,-0.131 0.153,-0.109 0.172,-0.093C0.191,-0.077 0.215,-0.069 0.245,-0.069Z" style="fill:rgb(102,168,152);fill-rule:nonzero;"/>
            </g>
            <g transform="matrix(91.3889,0,0,235.433,6244.19,513.408)">
                <path d="M0.154,-0.528L0.157,-0.462C0.197,-0.513 0.25,-0.538 0.315,-0.538C0.427,-0.538 0.483,-0.475 0.484,-0.349L0.484,-0L0.394,-0L0.394,-0.35C0.393,-0.388 0.385,-0.416 0.367,-0.434C0.35,-0.452 0.324,-0.461 0.288,-0.461C0.258,-0.461 0.233,-0.454 0.21,-0.438C0.188,-0.422 0.171,-0.402 0.159,-0.376L0.159,-0L0.068,-0L0.068,-0.528L0.154,-0.528Z" style="fill:rgb(102,168,152);fill-rule:nonzero;"/>
            </g>
            <g transform="matrix(91.3889,0,0,235.433,6294.62,513.408)">
                <path d="M0.153,-0.074L0.462,-0.074L0.462,-0L0.043,-0L0.043,-0.066L0.334,-0.454L0.047,-0.454L0.047,-0.528L0.448,-0.528L0.448,-0.464L0.153,-0.074Z" style="fill:rgb(102,168,152);fill-rule:nonzero;"/>
            </g>
            <g transform="matrix(91.3889,0,0,235.433,6339.91,513.408)">
                <path d="M0.395,-0C0.389,-0.01 0.385,-0.029 0.382,-0.056C0.34,-0.012 0.29,0.01 0.231,0.01C0.179,0.01 0.137,-0.005 0.103,-0.034C0.07,-0.064 0.053,-0.101 0.053,-0.146C0.053,-0.201 0.074,-0.244 0.116,-0.275C0.158,-0.305 0.217,-0.32 0.292,-0.32L0.38,-0.32L0.38,-0.362C0.38,-0.393 0.371,-0.419 0.352,-0.437C0.333,-0.456 0.305,-0.465 0.269,-0.465C0.236,-0.465 0.209,-0.457 0.188,-0.441C0.166,-0.425 0.155,-0.405 0.155,-0.382L0.064,-0.382C0.064,-0.408 0.073,-0.434 0.092,-0.458C0.111,-0.483 0.136,-0.502 0.168,-0.517C0.2,-0.531 0.236,-0.538 0.274,-0.538C0.335,-0.538 0.382,-0.523 0.417,-0.492C0.451,-0.462 0.469,-0.42 0.471,-0.367L0.471,-0.124C0.471,-0.075 0.477,-0.036 0.489,-0.008L0.489,-0L0.395,-0ZM0.245,-0.069C0.273,-0.069 0.3,-0.076 0.325,-0.091C0.351,-0.105 0.369,-0.125 0.38,-0.148L0.38,-0.256L0.31,-0.256C0.199,-0.256 0.144,-0.224 0.144,-0.159C0.144,-0.131 0.153,-0.109 0.172,-0.093C0.191,-0.077 0.215,-0.069 0.245,-0.069Z" style="fill:rgb(102,168,152);fill-rule:nonzero;"/>
            </g>
        </g>
    </g>
</svg>
