<?xml version="1.0" encoding="UTF-8" standalone="no"?>
<!DOCTYPE svg PUBLIC "-//W3C//DTD SVG 1.1//EN" "http://www.w3.org/Graphics/SVG/1.1/DTD/svg11.dtd">
<svg width="100%" height="100%" viewBox="0 0 775 724" version="1.1" xmlns="http://www.w3.org/2000/svg" xmlns:xlink="http://www.w3.org/1999/xlink" xml:space="preserve" xmlns:serif="http://www.serif.com/" style="fill-rule:evenodd;clip-rule:evenodd;stroke-linecap:round;stroke-linejoin:round;stroke-miterlimit:1.5;">
    <g transform="matrix(1,0,0,1,-5114.86,-12261.9)">
        <g transform="matrix(0.452468,-0.158175,0.239307,0.684551,3135.39,11160.4)">
            <path d="M3575.78,3138.93C3575.78,3138.93 3599.88,3085.04 3674.5,3128.61C3785.21,3193.24 3575.78,3138.93 3575.78,3138.93Z" style="fill:rgb(2,164,126);stroke:white;stroke-width:9.07px;"/>
        </g>
        <g transform="matrix(0.0701606,-0.62791,0.714017,0.0797819,2982.75,14819.9)">
            <path d="M3582.07,3151.06C3582.07,3151.06 3598.37,3081.35 3669.93,3113.26C3788.45,3166.1 3582.07,3151.06 3582.07,3151.06Z" style="fill:rgb(2,164,126);stroke:white;stroke-width:6.4px;"/>
        </g>
        <g transform="matrix(-0.290449,-0.5611,0.638045,-0.330278,4567.26,15851.9)">
            <path d="M3556.71,3161.28C3556.71,3161.28 3568.21,3092.46 3639.78,3124.37C3758.29,3177.21 3556.71,3161.28 3556.71,3161.28Z" style="fill:rgb(2,164,126);stroke:white;stroke-width:6.4px;"/>
        </g>
        <g transform="matrix(-0.456065,-0.0273706,-0.03921,0.422664,7248.78,11438.4)">
            <path d="M3399.08,3595.24C3287.74,3236.84 2729.39,3159.4 2850.5,2672.55C2889.75,2514.76 3015.89,2409.39 3009.74,2424.12C2820.07,2878.31 3083.12,3095.52 3155.11,3183.99C3231.95,3278.41 3365.58,3405.1 3392.21,3515.17C3400.17,3548.07 3411.15,3634.09 3399.08,3595.24Z" style="fill:rgb(134,186,66);"/>
        </g>
        <g transform="matrix(-0.595647,0.0375636,0.00685367,0.497725,7557.58,11063.1)">
            <path d="M3399.08,3595.24C3287.74,3236.84 2729.39,3159.4 2850.5,2672.55C2889.75,2514.76 3015.89,2409.39 3009.74,2424.12C2820.07,2878.31 3083.12,3095.52 3155.11,3183.99C3231.95,3278.41 3365.58,3405.1 3392.21,3515.17C3400.17,3548.07 3411.15,3634.09 3399.08,3595.24Z" style="fill:rgb(2,164,126);"/>
        </g>
        <g transform="matrix(0.456065,-0.0273706,0.03921,0.422664,3755.18,11438.4)">
            <path d="M3399.08,3595.24C3287.74,3236.84 2729.39,3159.4 2850.5,2672.55C2889.75,2514.76 3015.89,2409.39 3009.74,2424.12C2820.07,2878.31 3083.12,3095.52 3155.11,3183.99C3231.95,3278.41 3365.58,3405.1 3392.21,3515.17C3400.17,3548.07 3411.15,3634.09 3399.08,3595.24Z" style="fill:rgb(134,186,66);"/>
        </g>
        <g transform="matrix(0.595647,0.0375636,-0.00685367,0.497725,3446.38,11063.1)">
            <path d="M3399.08,3595.24C3287.74,3236.84 2729.39,3159.4 2850.5,2672.55C2889.75,2514.76 3015.89,2409.39 3009.74,2424.12C2820.07,2878.31 3083.12,3095.52 3155.11,3183.99C3231.95,3278.41 3365.58,3405.1 3392.21,3515.17C3400.17,3548.07 3411.15,3634.09 3399.08,3595.24Z" style="fill:rgb(2,164,126);"/>
        </g>
        <g transform="matrix(0.202911,0.449469,-0.449469,0.202911,6215.98,10507.5)">
            <path d="M3336.78,2530.89C3344.65,2518.43 3352.09,2547.23 3349.29,2554.02C3148.02,3042.66 3517.31,3140.07 3453.54,3128.83C3163.3,3077.7 3024.7,2752.18 3020.66,2683.76C3017.61,2631.88 3105.68,2804.77 3155.51,2780.67C3208.2,2755.2 3300.15,2588.82 3336.78,2530.89Z" style="fill:rgb(2,164,126);"/>
        </g>
        <g transform="matrix(0.565208,0.327027,-0.341255,0.589799,4613.79,9746.95)">
            <path d="M3307.43,2553.69C3309.51,2539.26 3355.13,2577.74 3343.41,2609.27C3199.7,2995.89 3508.7,3172.86 3448.35,3150.16C3170.49,3045.61 3021.47,2742.1 3017.44,2673.69C3014.39,2621.81 3238.7,3030.47 3307.43,2553.69Z" style="fill:rgb(134,186,66);"/>
        </g>
        <g transform="matrix(0.483626,0.0964468,-0.0964468,0.483626,4077.82,10883.3)">
            <ellipse cx="3109.64" cy="2592.78" rx="62.201" ry="73.452" style="fill:rgb(2,164,126);"/>
        </g>
        <g transform="matrix(0.758813,0.151326,-0.148651,0.745401,3534.82,9914.24)">
            <ellipse cx="3109.64" cy="2592.78" rx="62.201" ry="73.452" style="fill:rgb(134,186,66);"/>
        </g>
        <g transform="matrix(0.590854,0.117831,-0.114862,0.575969,4133.74,10579.6)">
            <ellipse cx="3109.64" cy="2592.78" rx="62.201" ry="73.452" style="fill:rgb(2,164,126);"/>
        </g>
        <g transform="matrix(0.483626,0.0964468,-0.0964468,0.483626,4077.82,10883.3)">
            <path d="M3259.49,2475.46C3267.36,2463.01 3273.54,2491.41 3272,2498.6C3152.6,3053.82 3579.21,3125.51 3416.81,3098.17C3126.2,3049.25 3024.7,2752.18 3020.66,2683.76C3017.61,2631.88 3115.71,2815.39 3155.51,2780.67C3195.32,2745.96 3222.86,2533.39 3259.49,2475.46Z" style="fill:rgb(2,164,126);"/>
        </g>
    </g>
</svg>
